<?xml version="1.0" encoding="UTF-8"?>
<svg width="182px" height="59px" viewBox="0 0 182 59" version="1.1" xmlns="http://www.w3.org/2000/svg" xmlns:xlink="http://www.w3.org/1999/xlink">
    <!-- Generator: Sketch 52.6 (67491) - http://www.bohemiancoding.com/sketch -->
    <title>Group 47</title>
    <desc>Created with Sketch.</desc>
    <defs>
        <polygon id="path-1" points="0 0.329492901 52.4855236 0.329492901 52.4855236 58.0121704 0 58.0121704"></polygon>
    </defs>
    <g id="设计规范" stroke="none" stroke-width="1" fill="none" fill-rule="evenodd">
        <g id="Apple-TV" transform="translate(-442.000000, -126.000000)">
            <g id="navbar" transform="translate(0.000000, 94.000000)">
                <g id="Group-47" transform="translate(442.000000, 32.000000)">
                    <g id="Group-3" transform="translate(0.000000, 0.076268)">
                        <mask id="mask-2" fill="white">
                            <use xlink:href="#path-1"></use>
                        </mask>
                        <g id="Clip-2"></g>
                        <path d="M23.0256608,54.3992698 L5.97394883,44.5688438 C3.98872593,43.4232049 2.75664468,41.2909533 2.75664468,39.0021095 L2.75664468,19.3392292 C2.75664468,17.0516024 3.98872593,14.9181339 5.97394883,13.7745233 L23.0268795,3.94247465 C24.0006014,3.37979716 25.1136587,3.08121704 26.2429649,3.08121704 C27.3718649,3.08121704 28.4837035,3.37979716 29.4602691,3.94247465 L46.5111686,13.7745233 C48.4967977,14.9197566 49.7284727,17.0516024 49.7284727,19.3408519 L49.7284727,39.0021095 C49.7284727,41.2909533 48.4967977,43.4232049 46.5111686,44.5688438 L29.4602691,54.3992698 C27.5083566,55.5238134 24.9775732,55.5254361 23.0256608,54.3992698 M47.8898971,11.3903448 L30.8398101,1.55951318 C29.44402,0.754239351 27.8544606,0.329492901 26.2429649,0.329492901 C24.6298444,0.329492901 23.0402849,0.754239351 21.6469322,1.55829615 L4.59562648,11.3903448 C1.76098655,13.0248276 0,16.0706694 0,19.3392292 L0,39.0021095 C0,42.2722921 1.76098655,45.3181339 4.59562648,46.9513996 L21.6469322,56.7818256 C23.0402849,57.5875051 24.6298444,58.0122515 26.2429649,58.0122515 C27.8544606,58.0122515 29.44402,57.5875051 30.8381852,56.7834483 L47.8898971,46.9513996 C50.7245371,45.3181339 52.4855236,42.2710751 52.4855236,39.0021095 L52.4855236,19.3392292 C52.4855236,16.0706694 50.7245371,13.0248276 47.8898971,11.3903448" id="Fill-1" fill="#32CCAD" mask="url(#mask-2)"></path>
                    </g>
                    <path d="M26.2429649,12.5211765 C25.4833237,12.5211765 24.7322131,12.7219878 24.0753469,13.1012982 L13.3250013,19.2988641 C11.9877077,20.0704665 11.1561646,21.5081947 11.1561646,23.0489655 L11.1561646,35.4453144 C11.1561646,36.9877079 11.9877077,38.4242191 13.3250013,39.1958215 L24.0753469,45.3950101 C25.3923292,46.1520081 27.0964442,46.1520081 28.4118016,45.3950101 L39.1605223,39.1958215 C40.4978159,38.4242191 41.329359,36.9877079 41.329359,35.4453144 L41.329359,23.0489655 C41.329359,21.5069777 40.4978159,20.0704665 39.1605223,19.2988641 L28.4118016,13.1012982 C27.7533105,12.7219878 27.0021999,12.5211765 26.2429649,12.5211765 M26.2429649,47.1536308 C25.2749301,47.1536308 24.3219256,46.8988641 23.4846953,46.4152941 L12.7343498,40.2165112 C11.0318597,39.2367951 9.97445529,37.4079919 9.97445529,35.4453144 L9.97445529,23.0489655 C9.97445529,21.0883164 11.0318597,19.2591075 12.7343498,18.2777688 L23.4846953,12.0789858 C25.1591559,11.1138742 27.3279926,11.1138742 29.0012345,12.0789858 L39.7515801,18.2777688 C41.452039,19.2591075 42.5110683,21.0866937 42.5110683,23.0489655 L42.5110683,35.4453144 C42.5110683,37.4092089 41.452039,39.2367951 39.7515801,40.2165112 L29.0012345,46.4152941 C28.1640042,46.8988641 27.2105935,47.1536308 26.2429649,47.1536308" id="Fill-4" fill="#32CCAD"></path>
                    <path d="M26.2429649,21.1478296 C25.91311,21.1478296 25.5873173,21.2354564 25.301741,21.3997566 L19.9078818,24.5101014 C19.3273859,24.8439757 18.9666579,25.4679108 18.9666579,26.1368763 L18.9666579,32.3579716 C18.9666579,33.0273428 19.3273859,33.6496552 19.9078818,33.9851521 L25.3029596,37.095497 C25.8749248,37.4249087 26.6122237,37.4249087 27.182564,37.095497 L32.5776418,33.9851521 C33.1581377,33.6496552 33.5176471,33.0273428 33.5176471,32.3579716 L33.5176471,26.1368763 C33.5176471,25.4679108 33.1581377,24.8439757 32.5792667,24.5101014 L27.182564,21.3997566 C26.8982063,21.2354564 26.5728198,21.1478296 26.2429649,21.1478296 M26.2429649,38.5263286 C25.7063413,38.5263286 25.1766236,38.3843408 24.7119019,38.1161866 L19.3168241,35.0058418 C18.3727565,34.4622312 17.7861672,33.4476268 17.7861672,32.3579716 L17.7861672,26.1368763 C17.7861672,25.0476268 18.3727565,24.0326166 19.318449,23.4881947 L24.7106832,20.3774442 C25.6441889,19.8415416 26.845397,19.8415416 27.774028,20.3774442 L33.1686996,23.4881947 C34.1131733,24.0326166 34.6993564,25.0476268 34.6993564,26.1368763 L34.6993564,32.3579716 C34.6993564,33.4476268 34.1131733,34.4622312 33.1686996,35.0058418 L27.774028,38.1161866 C27.3089,38.3843408 26.7808072,38.5263286 26.2429649,38.5263286" id="Fill-6" fill="#32CCAD"></path>
                    <path d="M35.801933,35.0318458 C35.7085012,35.0318458 35.6142569,35.0099391 35.5248874,34.963286 L35.4732968,34.9352941 C35.1844706,34.7815416 35.0760084,34.4241379 35.2287491,34.1369168 C35.3827085,33.8501014 35.740593,33.7401623 36.0277942,33.8926978 L36.0793849,33.920284 C36.368211,34.0728195 36.4778918,34.4302231 36.3239325,34.7186613 C36.2183139,34.9178499 36.0131701,35.0318458 35.801933,35.0318458" id="Fill-8" fill="#32CCAD"></path>
                    <path d="M37.7009549,36.0417039 C37.6075231,36.0417039 37.5120601,36.0197972 37.4239093,35.9727383 L37.3154471,35.9155375 C37.0282458,35.7621907 36.9193775,35.404787 37.0733369,35.1175659 C37.2260776,34.8307505 37.583962,34.7224341 37.8727882,34.8745639 L37.9800317,34.9317647 C38.2672329,35.0855172 38.3756951,35.4425152 38.2229544,35.7297363 C38.1161171,35.9289249 37.9125983,36.0417039 37.7009549,36.0417039" id="Fill-10" fill="#32CCAD"></path>
                    <path d="M39.544852,37.0225963 C39.451014,37.0225963 39.355551,37.0006897 39.2674002,36.9536308 L39.2162158,36.9260446 C38.9273896,36.7735091 38.8177088,36.4161055 38.9716682,36.1276673 C39.1256275,35.8404462 39.483512,35.7321298 39.7707133,35.8846653 L39.8223039,35.9126572 C40.11113,36.064787 40.219186,36.4221907 40.0668515,36.7090061 C39.9612329,36.9081947 39.7560892,37.0225963 39.544852,37.0225963" id="Fill-12" fill="#32CCAD"></path>
                    <path d="M17.0600396,35.0976065 C16.8488024,35.0976065 16.6436587,34.9836105 16.5380401,34.7844219 C16.3840807,34.4972008 16.4937615,34.1397972 16.7825877,33.9860446 L16.8341783,33.9584584 C17.1230045,33.8075456 17.4808889,33.9158621 17.6332234,34.2026775 C17.7859641,34.4915213 17.6758771,34.8485193 17.3886758,35.0010548 L17.3358665,35.0290467 C17.2477156,35.0756998 17.1538776,35.0976065 17.0600396,35.0976065" id="Fill-14" fill="#32CCAD"></path>
                    <path d="M15.0304975,36.1746045 C14.8192604,36.1746045 14.6157415,36.0618256 14.508498,35.8626369 C14.3561635,35.5754158 14.4642195,35.2184178 14.751827,35.0646653 L14.8680074,35.003002 C15.1552087,34.8508722 15.5126869,34.9591886 15.6654276,35.2460041 C15.819387,35.5344422 15.7109248,35.8918458 15.4220987,36.0443813 L15.3079494,36.1060446 C15.2197985,36.1526978 15.1243355,36.1746045 15.0304975,36.1746045" id="Fill-16" fill="#32CCAD"></path>
                    <path d="M13.063636,37.2187018 C12.8523988,37.2187018 12.64888,37.1059229 12.5416365,36.9055172 C12.389302,36.6182961 12.497358,36.2608925 12.7861841,36.1087627 L12.8377747,36.0807708 C13.1266009,35.928641 13.4844854,36.0381744 13.6368198,36.3253955 C13.7895605,36.6126166 13.6810984,36.9696146 13.3922722,37.1221501 L13.3410878,37.150142 C13.2513121,37.1967951 13.157474,37.2187018 13.063636,37.2187018" id="Fill-18" fill="#32CCAD"></path>
                    <path d="M26.2572234,15.2367546 C25.9346806,15.2367546 25.6710404,14.9763083 25.6665719,14.6525761 L25.664947,14.5353347 C25.6633221,14.2087627 25.9245249,13.9422312 26.25113,13.9393915 L26.2560047,13.9393915 C26.5797663,13.9393915 26.8438127,14.1998377 26.8466563,14.52357 L26.8482812,14.6408114 C26.8511248,14.9673834 26.5899219,15.2339148 26.2633168,15.2367546 L26.2572234,15.2367546 Z M26.2779409,17.3207302 C25.955398,17.3207302 25.6909454,17.060284 25.688508,16.7365517 L25.6868831,16.6193103 C25.6840396,16.2927383 25.9448362,16.0262069 26.2718475,16.0229615 C26.5830161,16.0306694 26.8645302,16.2825963 26.8689987,16.6075456 L26.8689987,16.724787 C26.8718423,17.051359 26.6106394,17.3178905 26.2836281,17.3207302 L26.2779409,17.3207302 Z M26.2994709,19.4047059 C25.9761155,19.4047059 25.7116629,19.143854 25.7088193,18.8201217 L25.7071944,18.703286 C25.7047571,18.377931 25.9667724,18.1101826 26.292565,18.1073428 L26.2994709,18.1073428 C26.6224199,18.1073428 26.8864664,18.367789 26.8893099,18.6915213 L26.8909348,18.8099797 C26.8933722,19.134929 26.6313569,19.4018661 26.3055642,19.4047059 L26.2994709,19.4047059 Z" id="Fill-20" fill="#32CCAD"></path>
                    <path d="M63.5149053,25.2266126 L65.7040533,25.2266126 C67.1079678,25.2266126 67.8099251,24.6468966 67.8099251,23.4874645 C67.8099251,22.9243813 67.6194054,22.4858418 67.2379599,22.1710345 C66.8565144,21.8562272 66.2898301,21.6992292 65.5379071,21.6992292 L63.5149053,21.6992292 L63.5149053,25.2266126 Z M63.5149053,16.8797566 L63.5149053,20.3077485 L65.0573427,20.3077485 C65.8864484,20.3077485 66.5022859,20.1397972 66.9064801,19.8026775 C67.3098618,19.4659635 67.5117557,19.0436511 67.5117557,18.5357404 C67.5117557,18.0282353 67.3317979,17.6249899 66.9726948,17.3268154 C66.6131854,17.028641 66.0688436,16.8797566 65.3388568,16.8797566 L63.5149053,16.8797566 Z M61.806728,15.4720487 L65.4716924,15.4720487 C66.6436523,15.4720487 67.5670024,15.745071 68.2413363,16.291927 C68.9156703,16.8383773 69.2528372,17.5588641 69.2528372,18.4529817 C69.2528372,19.071643 69.0785666,19.6124138 68.7304315,20.0761055 C68.3818903,20.5397972 67.9370736,20.8379716 67.3955753,20.9702231 C68.0032883,21.0809736 68.5151322,21.3625152 68.9294819,21.8148479 C69.3442379,22.2679919 69.5510066,22.9053144 69.5510066,23.7276268 C69.5510066,24.5503448 69.2499937,25.2404057 68.6475616,25.7978093 C68.0447233,26.3556187 67.1965249,26.6343205 66.1017478,26.6343205 L61.806728,26.6343205 L61.806728,15.4720487 Z" id="Fill-22" fill="#32CCAD"></path>
                    <polygon id="Fill-24" fill="#32CCAD" points="75.9194408 25.1271805 80.4963809 25.1271805 80.4963809 26.6342799 74.2112635 26.6342799 74.2112635 15.4720081 75.9194408 15.4720081"></polygon>
                    <path d="M87.1711902,17.9643813 C86.5797262,18.7096146 86.2839942,19.7225963 86.2839942,21.0033266 C86.2839942,22.2844625 86.5878507,23.2998783 87.1963762,24.0507911 C87.8040892,24.8017039 88.6246642,25.1769574 89.6585075,25.1769574 C90.6923508,25.1769574 91.5019578,24.8069777 92.0881409,24.0670183 C92.6739177,23.3278702 92.9672123,22.3092089 92.9672123,21.0118458 C92.9672123,19.7144828 92.6710741,18.6958215 92.0800164,17.9562677 C91.4881461,17.216714 90.6700084,16.8467343 89.6256033,16.8467343 C88.5807919,16.8467343 87.7626542,17.2191481 87.1711902,17.9643813 M89.6422585,26.7668154 C88.0774788,26.7668154 86.8283361,26.2422718 85.8940179,25.1935903 C84.960106,24.144503 84.492947,22.7505882 84.492947,21.0118458 C84.492947,19.2726978 84.9572625,17.8791886 85.8858934,16.8301014 C86.8145244,15.7814199 88.0665107,15.2568763 89.6422585,15.2568763 C91.2176001,15.2568763 92.4638992,15.7781744 93.3815621,16.8215822 C94.299225,17.8649899 94.7582596,19.2589047 94.7582596,21.0033266 C94.7582596,22.7481542 94.2963814,24.144503 93.3734376,25.1935903 C92.4500876,26.2422718 91.206632,26.7668154 89.6422585,26.7668154" id="Fill-26" fill="#32CCAD"></path>
                    <path d="M104.757901,16.8963083 C103.641188,16.8963083 102.709713,17.2748073 101.963477,18.0305882 C101.217241,18.7871805 100.844327,19.7944828 100.844327,21.0533063 C100.844327,22.3117241 101.214398,23.3165923 101.955759,24.0670994 C102.695901,24.8180122 103.63875,25.1936714 104.783087,25.1936714 C105.927017,25.1936714 106.864179,24.9174037 107.593353,24.3652738 L107.593353,26.087789 C106.908051,26.5405274 105.957484,26.7668966 104.741246,26.7668966 C103.072066,26.7668966 101.706743,26.2480325 100.645276,25.2098986 C99.5842158,24.1725761 99.0532793,22.7948884 99.0532793,21.0780527 C99.0532793,19.361217 99.5866531,17.9725761 100.653401,16.9129412 C101.720148,15.8529006 103.072066,15.3230832 104.708341,15.3230832 C105.901831,15.3230832 106.858492,15.52714 107.577104,15.9356592 L107.577104,17.6082759 C107.090446,17.3433671 106.650911,17.1583773 106.258903,17.053712 C105.86649,16.948641 105.365614,16.8963083 104.757901,16.8963083" id="Fill-28" fill="#32CCAD"></path>
                    <path d="M116.266669,21.1028803 L120.611654,26.6343205 L118.455817,26.6343205 L114.227012,21.1195132 L118.289671,15.4720487 L120.363045,15.4720487 L116.266669,21.1028803 Z M112.303129,26.6343205 L114.011306,26.6343205 L114.011306,15.4720487 L112.303129,15.4720487 L112.303129,26.6343205 Z" id="Fill-30" fill="#32CCAD"></path>
                    <path d="M130.263201,16.8963083 C129.146488,16.8963083 128.21542,17.2748073 127.469184,18.0305882 C126.722542,18.7871805 126.349627,19.7944828 126.349627,21.0533063 C126.349627,22.3117241 126.719698,23.3165923 127.461059,24.0670994 C128.201202,24.8180122 129.144051,25.1936714 130.288387,25.1936714 C131.432318,25.1936714 132.369479,24.9174037 133.09906,24.3652738 L133.09906,26.087789 C132.413352,26.5405274 131.462784,26.7668966 130.246546,26.7668966 C128.577366,26.7668966 127.212043,26.2480325 126.150577,25.2098986 C125.089516,24.1725761 124.55858,22.7948884 124.55858,21.0780527 C124.55858,19.361217 125.091954,17.9725761 126.158701,16.9129412 C127.225449,15.8529006 128.577366,15.3230832 130.213642,15.3230832 C131.407538,15.3230832 132.363792,15.52714 133.082405,15.9356592 L133.082405,17.6082759 C132.595747,17.3433671 132.156617,17.1583773 131.764204,17.053712 C131.37179,16.948641 130.87132,16.8963083 130.263201,16.8963083" id="Fill-32" fill="#32CCAD"></path>
                    <polygon id="Fill-34" fill="#32CCAD" points="144.541776 15.4720892 146.249547 15.4720892 146.249547 26.6343611 144.541776 26.6343611 144.541776 21.7487627 139.516769 21.7487627 139.516769 26.6343611 137.808998 26.6343611 137.808998 15.4720892 139.516769 15.4720892 139.516769 20.2745233 144.541776 20.2745233"></polygon>
                    <path d="M153.927814,22.4773631 L157.509502,22.4773631 C156.547967,19.5073834 155.956503,17.6027181 155.735516,16.7637728 C155.657927,17.0842596 155.055495,18.9885193 153.927814,22.4773631 Z M158.852889,26.6343611 L157.974224,23.9017039 L153.463092,23.9017039 L152.567772,26.6343611 L150.760069,26.6343611 L154.62449,15.4720892 L156.863198,15.4720892 L160.677247,26.6343611 L158.852889,26.6343611 Z" id="Fill-36" fill="#32CCAD"></path>
                    <polygon id="Fill-38" fill="#32CCAD" points="165.304031 26.6344828 166.995553 26.6344828 166.995553 15.472211 165.304031 15.472211"></polygon>
                    <path d="M172.318607,26.6341988 L172.318607,15.471927 L174.341609,15.471927 C177.20509,20.3299391 178.946172,23.3660446 179.565666,24.5806491 C179.499451,23.5761866 179.46614,22.1023529 179.46614,20.1587424 L179.46614,15.471927 L181.174318,15.471927 L181.174318,26.6341988 L179.15091,26.6341988 C176.331706,21.8978905 174.57925,18.8561055 173.893948,17.5088438 C173.982505,18.6131034 174.026784,20.0982961 174.026784,21.9640162 L174.026784,26.6341988 L172.318607,26.6341988 Z" id="Fill-40" fill="#32CCAD"></path>
                    <path d="M67.0638111,32.6688844 C65.9470979,32.6688844 65.0156233,33.0473834 64.2693875,33.8031643 C63.5231517,34.5597566 63.1498307,35.5670588 63.1498307,36.8258824 C63.1498307,38.0843002 63.5203081,39.0891684 64.261263,39.8396755 C65.0018117,40.5909939 65.9442543,40.9662475 67.0889971,40.9662475 C68.2329275,40.9662475 69.1700892,40.6903854 69.8992635,40.1382556 L69.8992635,41.8603651 C69.2139615,42.3135091 68.2633944,42.5394726 67.0471559,42.5394726 C65.3779763,42.5394726 64.0122469,42.0206085 62.9511865,40.9828803 C61.8897199,39.9451521 61.3591897,38.5674645 61.3591897,36.8506288 C61.3591897,35.1341988 61.8925634,33.7451521 62.959311,32.6855172 C64.0260586,31.6254767 65.3779763,31.0956592 67.0142516,31.0956592 C68.2077415,31.0956592 69.164402,31.299716 69.8826083,31.7082353 L69.8826083,33.3808519 C69.3963566,33.1159432 68.9568209,32.931359 68.5644073,32.826288 C68.1723999,32.721217 67.6715241,32.6688844 67.0638111,32.6688844" id="Fill-41" fill="#32CCAD"></path>
                    <polygon id="Fill-42" fill="#32CCAD" points="76.3173384 40.9827586 81.0604247 40.9827586 81.0604247 42.4070994 74.6091612 42.4070994 74.6091612 31.2448276 80.9775547 31.2448276 80.9775547 32.6687627 76.3173384 32.6687627 76.3173384 36.1137931 80.4466183 36.1137931 80.4466183 37.5381339 76.3173384 37.5381339"></polygon>
                    <path d="M85.902508,42.4069777 L85.902508,31.2447059 L87.9255099,31.2447059 C90.7889918,36.1027181 92.5300733,39.1388235 93.1495669,40.353428 C93.0833521,39.3489655 93.0500417,37.8747262 93.0500417,35.9315213 L93.0500417,31.2447059 L94.7582189,31.2447059 L94.7582189,42.4069777 L92.7348109,42.4069777 C89.9156075,37.6702637 88.1631517,34.6288844 87.4778496,33.2816227 C87.5664068,34.3858824 87.6106853,35.8710751 87.6106853,37.7367951 L87.6106853,42.4069777 L85.902508,42.4069777 Z" id="Fill-43" fill="#32CCAD"></path>
                    <polygon id="Fill-44" fill="#32CCAD" points="106.664844 31.2446653 106.664844 32.6690061 103.72946 32.6690061 103.72946 42.4069371 102.021283 42.4069371 102.021283 32.6690061 99.1029607 32.6690061 99.1029607 31.2446653"></polygon>
                    <path d="M112.718169,32.6688844 L112.718169,36.7427181 L114.2602,36.7427181 C114.967439,36.7427181 115.504062,36.5581339 115.868853,36.1881542 C116.233643,35.8185801 116.416444,35.3244625 116.416444,34.7058012 C116.416444,33.3479919 115.669802,32.6688844 114.177331,32.6688844 L112.718169,32.6688844 Z M112.718169,38.1674645 L112.718169,42.4068154 L111.009992,42.4068154 L111.009992,31.2445436 L114.127771,31.2445436 C115.409818,31.2445436 116.399789,31.5565112 117.095653,32.1804462 C117.792329,32.8039757 118.14087,33.6514402 118.14087,34.7224341 C118.129496,35.5066126 117.930446,36.1715213 117.543719,36.7179716 C117.156587,37.2648276 116.620369,37.6595538 115.935067,37.9021501 L118.853796,42.4068154 L116.814139,42.4068154 L114.193986,38.1674645 L112.718169,38.1674645 Z" id="Fill-45" fill="#32CCAD"></path>
                    <polygon id="Fill-46" fill="#32CCAD" points="124.906877 40.9827586 129.649557 40.9827586 129.649557 42.4070994 123.1987 42.4070994 123.1987 31.2448276 129.566687 31.2448276 129.566687 32.6687627 124.906877 32.6687627 124.906877 36.1137931 129.035751 36.1137931 129.035751 37.5381339 124.906877 37.5381339"></polygon>
                </g>
            </g>
        </g>
    </g>
</svg>